<mxfile host="app.diagrams.net" modified="2024-02-13T07:23:38.790Z" agent="Mozilla/5.0 (Windows NT 10.0; Win64; x64) AppleWebKit/537.36 (KHTML, like Gecko) Chrome/121.0.0.0 Safari/537.36" etag="bZ3hqKVggjceGvIbVagL" version="23.1.2" type="github">
  <diagram name="Страница — 1" id="Il09f_JZnOJmlo6yiQQx">
    <mxGraphModel dx="3172" dy="614" grid="1" gridSize="10" guides="1" tooltips="1" connect="1" arrows="1" fold="1" page="1" pageScale="1" pageWidth="827" pageHeight="1169" math="0" shadow="0">
      <root>
        <mxCell id="0" />
        <mxCell id="1" parent="0" />
        <mxCell id="KAlhx2F8nlkhRq3qYL2v-13" style="edgeStyle=entityRelationEdgeStyle;rounded=0;orthogonalLoop=1;jettySize=auto;html=1;exitX=0.995;exitY=0.63;exitDx=0;exitDy=0;exitPerimeter=0;entryX=0;entryY=0.5;entryDx=0;entryDy=0;" edge="1" parent="1" source="KAlhx2F8nlkhRq3qYL2v-1" target="KAlhx2F8nlkhRq3qYL2v-12">
          <mxGeometry relative="1" as="geometry" />
        </mxCell>
        <mxCell id="KAlhx2F8nlkhRq3qYL2v-1" value="&lt;font style=&quot;font-size: 14px;&quot;&gt;Freelancer&lt;/font&gt;" style="aspect=fixed;sketch=0;html=1;dashed=0;whitespace=wrap;fillColor=#2875E2;strokeColor=#ffffff;points=[[0.005,0.63,0],[0.1,0.2,0],[0.9,0.2,0],[0.5,0,0],[0.995,0.63,0],[0.72,0.99,0],[0.5,1,0],[0.28,0.99,0]];shape=mxgraph.kubernetes.icon2;prIcon=user" vertex="1" parent="1">
          <mxGeometry x="-826.7899999999998" y="140" width="60" height="57.6" as="geometry" />
        </mxCell>
        <mxCell id="KAlhx2F8nlkhRq3qYL2v-15" style="edgeStyle=entityRelationEdgeStyle;rounded=0;orthogonalLoop=1;jettySize=auto;html=1;exitX=0.995;exitY=0.63;exitDx=0;exitDy=0;exitPerimeter=0;entryX=0;entryY=0.5;entryDx=0;entryDy=0;" edge="1" parent="1" source="KAlhx2F8nlkhRq3qYL2v-2" target="KAlhx2F8nlkhRq3qYL2v-12">
          <mxGeometry relative="1" as="geometry" />
        </mxCell>
        <mxCell id="KAlhx2F8nlkhRq3qYL2v-2" value="&lt;font style=&quot;font-size: 14px;&quot;&gt;Clients&lt;/font&gt;" style="aspect=fixed;sketch=0;html=1;dashed=0;whitespace=wrap;fillColor=#2875E2;strokeColor=#ffffff;points=[[0.005,0.63,0],[0.1,0.2,0],[0.9,0.2,0],[0.5,0,0],[0.995,0.63,0],[0.72,0.99,0],[0.5,1,0],[0.28,0.99,0]];shape=mxgraph.kubernetes.icon2;prIcon=sa" vertex="1" parent="1">
          <mxGeometry x="-826.9999999999999" y="210" width="60.42" height="58" as="geometry" />
        </mxCell>
        <mxCell id="KAlhx2F8nlkhRq3qYL2v-16" style="edgeStyle=entityRelationEdgeStyle;rounded=0;orthogonalLoop=1;jettySize=auto;html=1;exitX=0.995;exitY=0.63;exitDx=0;exitDy=0;exitPerimeter=0;entryX=0;entryY=0.5;entryDx=0;entryDy=0;" edge="1" parent="1" source="KAlhx2F8nlkhRq3qYL2v-3" target="KAlhx2F8nlkhRq3qYL2v-12">
          <mxGeometry relative="1" as="geometry" />
        </mxCell>
        <mxCell id="KAlhx2F8nlkhRq3qYL2v-3" value="&lt;font style=&quot;font-size: 14px;&quot;&gt;Admin&lt;/font&gt;" style="aspect=fixed;sketch=0;html=1;dashed=0;whitespace=wrap;fillColor=#2875E2;strokeColor=#ffffff;points=[[0.005,0.63,0],[0.1,0.2,0],[0.9,0.2,0],[0.5,0,0],[0.995,0.63,0],[0.72,0.99,0],[0.5,1,0],[0.28,0.99,0]];shape=mxgraph.kubernetes.icon2;prIcon=sa" vertex="1" parent="1">
          <mxGeometry x="-826.37" y="290" width="60.42" height="58" as="geometry" />
        </mxCell>
        <mxCell id="KAlhx2F8nlkhRq3qYL2v-5" value="" style="aspect=fixed;sketch=0;html=1;dashed=0;whitespace=wrap;fillColor=#2875E2;strokeColor=#ffffff;points=[[0.005,0.63,0],[0.1,0.2,0],[0.9,0.2,0],[0.5,0,0],[0.995,0.63,0],[0.72,0.99,0],[0.5,1,0],[0.28,0.99,0]];shape=mxgraph.kubernetes.icon2;prIcon=vol" vertex="1" parent="1">
          <mxGeometry x="-360" y="490" width="50" height="48" as="geometry" />
        </mxCell>
        <mxCell id="KAlhx2F8nlkhRq3qYL2v-34" style="edgeStyle=entityRelationEdgeStyle;rounded=0;orthogonalLoop=1;jettySize=auto;html=1;exitX=0.25;exitY=1;exitDx=0;exitDy=0;entryX=0;entryY=0.5;entryDx=0;entryDy=0;" edge="1" parent="1" source="KAlhx2F8nlkhRq3qYL2v-12" target="KAlhx2F8nlkhRq3qYL2v-24">
          <mxGeometry relative="1" as="geometry" />
        </mxCell>
        <mxCell id="KAlhx2F8nlkhRq3qYL2v-12" value="Edge Service" style="rounded=1;whiteSpace=wrap;html=1;" vertex="1" parent="1">
          <mxGeometry x="-669.79" y="220" width="120" height="60" as="geometry" />
        </mxCell>
        <mxCell id="KAlhx2F8nlkhRq3qYL2v-17" value="Notification Service&lt;br&gt;" style="rounded=1;whiteSpace=wrap;html=1;" vertex="1" parent="1">
          <mxGeometry x="-180" y="30" width="120" height="60" as="geometry" />
        </mxCell>
        <mxCell id="KAlhx2F8nlkhRq3qYL2v-18" value="Payment Service" style="rounded=1;whiteSpace=wrap;html=1;" vertex="1" parent="1">
          <mxGeometry x="-160" y="320" width="120" height="60" as="geometry" />
        </mxCell>
        <mxCell id="KAlhx2F8nlkhRq3qYL2v-19" value="Rating Service" style="rounded=1;whiteSpace=wrap;html=1;" vertex="1" parent="1">
          <mxGeometry x="60" y="170" width="120" height="60" as="geometry" />
        </mxCell>
        <mxCell id="KAlhx2F8nlkhRq3qYL2v-20" value="Customer Service" style="rounded=1;whiteSpace=wrap;html=1;" vertex="1" parent="1">
          <mxGeometry x="-413" y="280" width="120" height="60" as="geometry" />
        </mxCell>
        <mxCell id="KAlhx2F8nlkhRq3qYL2v-21" value="Freelancer Service" style="rounded=1;whiteSpace=wrap;html=1;" vertex="1" parent="1">
          <mxGeometry x="130" y="320" width="120" height="60" as="geometry" />
        </mxCell>
        <mxCell id="KAlhx2F8nlkhRq3qYL2v-22" value="Chat Service" style="rounded=1;whiteSpace=wrap;html=1;" vertex="1" parent="1">
          <mxGeometry x="-160" y="400" width="120" height="60" as="geometry" />
        </mxCell>
        <mxCell id="KAlhx2F8nlkhRq3qYL2v-23" value="Job Service" style="rounded=1;whiteSpace=wrap;html=1;" vertex="1" parent="1">
          <mxGeometry x="-413" y="160" width="120" height="60" as="geometry" />
        </mxCell>
        <mxCell id="KAlhx2F8nlkhRq3qYL2v-24" value="Discovery Service" style="rounded=1;whiteSpace=wrap;html=1;" vertex="1" parent="1">
          <mxGeometry x="-580" y="450" width="120" height="60" as="geometry" />
        </mxCell>
        <mxCell id="KAlhx2F8nlkhRq3qYL2v-35" value="&lt;font style=&quot;font-size: 14px;&quot;&gt;Keycloak&lt;br&gt;&amp;nbsp;Service&lt;/font&gt;" style="aspect=fixed;sketch=0;html=1;dashed=0;whitespace=wrap;fillColor=#2875E2;strokeColor=#ffffff;points=[[0.005,0.63,0],[0.1,0.2,0],[0.9,0.2,0],[0.5,0,0],[0.995,0.63,0],[0.72,0.99,0],[0.5,1,0],[0.28,0.99,0]];shape=mxgraph.kubernetes.icon2;prIcon=psp" vertex="1" parent="1">
          <mxGeometry x="-640" y="79.6" width="60.42" height="58" as="geometry" />
        </mxCell>
        <mxCell id="KAlhx2F8nlkhRq3qYL2v-37" style="edgeStyle=none;rounded=0;orthogonalLoop=1;jettySize=auto;html=1;exitX=0.5;exitY=0;exitDx=0;exitDy=0;entryX=0.5;entryY=1;entryDx=0;entryDy=0;entryPerimeter=0;" edge="1" parent="1" source="KAlhx2F8nlkhRq3qYL2v-12" target="KAlhx2F8nlkhRq3qYL2v-35">
          <mxGeometry relative="1" as="geometry" />
        </mxCell>
        <mxCell id="KAlhx2F8nlkhRq3qYL2v-39" value="Event broker&lt;br&gt;(kafka)" style="strokeWidth=2;html=1;shape=mxgraph.flowchart.direct_data;whiteSpace=wrap;" vertex="1" parent="1">
          <mxGeometry x="-340" y="40" width="110" height="40" as="geometry" />
        </mxCell>
      </root>
    </mxGraphModel>
  </diagram>
</mxfile>
